<svg width="250" height="91" viewBox="0 0 250 91" fill="none" xmlns="http://www.w3.org/2000/svg">
<path d="M77.2164 45.8203C76.8258 45.8203 76.2203 45.7617 75.4 45.6445C74.775 44.9805 74.2086 44.082 73.7008 42.9492C73.232 41.7773 72.8609 40.5469 72.5875 39.2578C72.3531 37.9297 72.2359 36.6211 72.2359 35.332C72.275 34.0039 72.5094 32.832 72.9391 31.8164C72.9391 31.7773 73.1148 31.3086 73.4664 30.4102C73.857 29.5117 74.3453 28.3789 74.9313 27.0117C75.5172 25.6055 76.1813 24.0625 76.9234 22.3828C77.6656 20.6641 78.4078 18.9844 79.15 17.3438C79.8922 15.7031 80.5953 14.2187 81.2594 12.8906C81.9625 11.5234 82.568 10.4687 83.0758 9.72656C83.4273 9.17969 83.7398 8.65234 84.0133 8.14453C84.3258 7.63672 84.6188 7.16797 84.8922 6.73828C85.3219 6.03516 85.7125 5.39062 86.0641 4.80469C86.4547 4.17969 86.8648 3.63281 87.2945 3.16406C87.7633 2.65625 88.2711 2.22656 88.818 1.875C89.3648 1.48438 90.0289 1.15234 90.8102 0.878906C91.2789 1.07422 91.6891 1.28906 92.0406 1.52344C92.3922 1.71875 92.7047 1.97266 92.9781 2.28516L93.1539 3.10547C93.232 3.37891 93.3492 3.57422 93.5055 3.69141C93.7008 3.76953 93.857 3.80859 93.9742 3.80859C94.482 3.92578 94.9117 4.0625 95.2633 4.21875C95.6539 4.33594 96.0641 4.41406 96.4938 4.45312C96.65 4.6875 96.7867 4.92188 96.9039 5.15625C97.0602 5.39062 97.2164 5.60547 97.3727 5.80078C98.1539 6.93359 98.7984 8.02734 99.3063 9.08203C99.8141 10.1367 99.8141 11.2891 99.3063 12.5391L99.3648 13.1836C99.5602 13.457 99.6578 13.7109 99.6578 13.9453C99.6578 14.1797 99.6188 14.5117 99.5406 14.9414C99.5016 15.2539 99.4625 15.6055 99.4234 15.9961C99.4234 16.3477 99.482 16.7383 99.5992 17.168L100.009 17.6367C100.634 17.9492 101.24 18.1055 101.826 18.1055C102.607 18.1055 103.31 17.9297 103.935 17.5781C104.56 17.2266 105.146 16.875 105.693 16.5234C106.123 16.2109 106.513 15.957 106.865 15.7617C107.255 15.5664 107.627 15.4297 107.978 15.3516C108.798 14.5703 109.541 13.8867 110.205 13.3008C110.908 12.6758 111.63 12.0508 112.373 11.4258C113.779 10.293 115.146 9.08203 116.474 7.79297C117.802 6.46484 118.857 4.82422 119.638 2.87109C120.068 2.59766 120.556 2.46094 121.103 2.46094C121.65 2.46094 122.197 2.57812 122.744 2.8125C123.291 3.00781 123.838 3.24219 124.384 3.51562C124.502 3.59375 124.599 3.65234 124.677 3.69141C124.795 3.73047 124.912 3.78906 125.029 3.86719C125.029 4.29688 125.205 4.6875 125.556 5.03906C125.752 5.19531 125.888 5.29297 125.966 5.33203C126.045 5.37109 126.123 5.41016 126.201 5.44922C126.513 5.64453 126.767 5.82031 126.963 5.97656C127.197 6.13281 127.373 6.34766 127.49 6.62109C127.841 7.67578 128.427 8.49609 129.248 9.08203C129.17 9.51172 129.189 9.94141 129.306 10.3711C129.423 10.7617 129.56 11.1523 129.716 11.543C129.795 11.6992 129.853 11.8555 129.892 12.0117C129.931 12.1289 129.99 12.2852 130.068 12.4805L128.779 12.3633L128.955 13.6523C129.072 14.3164 129.013 15.0586 128.779 15.8789C128.584 16.6992 128.349 17.3438 128.076 17.8125C128.154 18.9844 128.193 19.9219 128.193 20.625C128.193 21.2891 128.154 21.9141 128.076 22.5C127.998 23.0859 127.861 23.6523 127.666 24.1992C127.509 24.707 127.295 25.2539 127.021 25.8398C127.177 28.8086 126.826 31.5234 125.966 33.9844C125.146 36.4453 124.248 38.75 123.271 40.8984C123.154 41.1719 123.037 41.4258 122.92 41.6602C122.802 41.8945 122.705 42.1289 122.627 42.3633C122.197 42.4805 121.806 42.6172 121.455 42.7734C121.103 42.9297 120.771 43.1055 120.459 43.3008C120.029 43.5742 119.599 43.8086 119.17 44.0039C118.74 44.1602 118.291 44.2383 117.822 44.2383C115.947 42.8711 114.97 40.5078 114.892 37.1484C114.853 33.7891 115.576 29.5117 117.06 24.3164C117.334 24.1211 117.451 23.8281 117.412 23.4375V22.793L116.826 22.7344C116.63 22.7344 116.455 22.7539 116.298 22.793C116.142 22.832 116.025 23.0078 115.947 23.3203C114.697 24.2188 113.33 25.1562 111.845 26.1328C110.4 27.0703 108.896 27.9492 107.334 28.7695C105.771 29.5508 104.17 30.2148 102.529 30.7617C100.927 31.2695 99.3648 31.5234 97.8414 31.5234C93.9352 31.5234 90.9859 29.5312 88.9938 25.5469L88.4664 24.4922L87.8805 25.4297C87.7633 25.625 87.5484 26.0156 87.2359 26.6016C86.9625 27.1484 86.6695 27.793 86.357 28.5352C86.0836 29.2773 85.8297 30.0391 85.5953 30.8203C85.4 31.6016 85.3414 32.2852 85.4195 32.8711C84.9508 33.3008 84.482 33.7891 84.0133 34.3359C83.5836 34.8828 83.2711 35.5078 83.0758 36.2109C82.9977 36.4062 82.9781 36.6016 83.0172 36.7969C83.0563 36.9531 83.1148 37.1289 83.193 37.3242C83.1539 37.5977 83.0758 37.793 82.9586 37.9102C82.8414 38.0273 82.7047 38.1445 82.5484 38.2617C82.3531 38.457 82.1578 38.6719 81.9625 38.9062C81.7672 39.1016 81.5914 39.3359 81.4352 39.6094C81.357 39.8438 81.2984 40.0977 81.2594 40.3711C81.2203 40.6055 81.1813 40.8203 81.1422 41.0156C81.1422 41.4453 81.0836 41.7383 80.9664 41.8945C80.5758 42.7148 80.2242 43.3984 79.9117 43.9453C79.6383 44.4531 79.3648 44.8438 79.0914 45.1172C78.818 45.3906 78.525 45.5664 78.2125 45.6445C77.9391 45.7617 77.607 45.8203 77.2164 45.8203ZM160.656 12.0117C160.695 12.2852 160.695 12.5 160.656 12.6562C160.656 12.7734 160.637 12.8906 160.598 13.0078C160.598 13.125 160.598 13.2617 160.598 13.418C160.598 13.5352 160.637 13.7305 160.715 14.0039C159.895 15.332 158.938 16.25 157.844 16.7578C156.789 17.2266 155.637 17.5781 154.387 17.8125C153.137 18.0078 151.848 18.2227 150.52 18.457C149.23 18.6914 147.941 19.1992 146.652 19.9805C146.145 19.7852 145.676 19.7852 145.246 19.9805C144.855 20.1758 144.27 20.2344 143.488 20.1562C143.254 20.3906 142.961 20.5664 142.609 20.6836C142.258 20.7617 141.906 20.8594 141.555 20.9766C141.711 21.3281 141.77 21.6992 141.73 22.0898C141.73 22.4414 141.789 22.7344 141.906 22.9688C143.273 23.0859 144.777 23.0664 146.418 22.9102C148.098 22.7539 149.738 22.6562 151.34 22.6172C151.379 22.8125 151.359 22.9492 151.281 23.0273C151.203 23.0664 151.184 23.1641 151.223 23.3203C151.496 23.5156 151.77 23.7695 152.043 24.082C152.316 24.3555 152.59 24.6289 152.863 24.9023C153.137 25.1758 153.41 25.4102 153.684 25.6055C153.996 25.7617 154.348 25.8203 154.738 25.7812C154.895 26.0938 154.992 26.4453 155.031 26.8359C155.109 27.1875 155.07 27.5586 154.914 27.9492C154.289 28.3789 153.664 28.8281 153.039 29.2969C152.414 29.7266 151.75 30.1172 151.047 30.4688C150.383 30.8203 149.66 31.1133 148.879 31.3477C148.137 31.543 147.297 31.6211 146.359 31.582C146.164 31.582 146.008 31.582 145.891 31.582C145.812 31.582 145.695 31.5234 145.539 31.4062C145.227 31.6016 144.777 31.6602 144.191 31.582C143.645 31.5039 143.215 31.5625 142.902 31.7578C142.473 31.5625 141.945 31.4844 141.32 31.5234C140.734 31.5234 140.207 31.4453 139.738 31.2891C139.113 32.1094 138.547 32.9883 138.039 33.9258C137.531 34.8633 137.082 35.8594 136.691 36.9141C138.02 37.1094 139.113 37.1875 139.973 37.1484C140.871 37.1094 141.711 37.0508 142.492 36.9727C143.273 36.8555 144.074 36.7578 144.895 36.6797C145.715 36.5625 146.75 36.5234 148 36.5625C148.781 36.1328 149.699 35.8594 150.754 35.7422C151.848 35.5859 152.844 35.3516 153.742 35.0391C154.055 35.1562 154.328 35.3711 154.562 35.6836C154.797 35.957 155.012 36.2305 155.207 36.5039C155.441 36.7383 155.676 36.9531 155.91 37.1484C156.145 37.3438 156.438 37.4219 156.789 37.3828C156.945 37.5391 157.043 37.7344 157.082 37.9688C157.16 38.1641 157.219 38.3594 157.258 38.5547C157.297 38.75 157.355 38.9258 157.434 39.082C157.551 39.1992 157.727 39.2383 157.961 39.1992C157.375 40.4883 156.691 41.4844 155.91 42.1875C155.168 42.8516 154.309 43.3594 153.332 43.7109C152.355 44.0625 151.262 44.3359 150.051 44.5312C148.879 44.7266 147.57 44.9609 146.125 45.2344C145.773 45.3125 145.48 45.293 145.246 45.1758C145.012 45.0977 144.738 45.0586 144.426 45.0586C143.527 45.2539 142.453 45.4297 141.203 45.5859C139.953 45.7422 138.684 45.8008 137.395 45.7617C136.105 45.7227 134.875 45.5469 133.703 45.2344C132.531 44.9609 131.574 44.4531 130.832 43.7109C130.52 43.4375 130.305 43.125 130.188 42.7734C130.109 42.3828 129.855 42.0898 129.426 41.8945C129.387 41.3867 129.309 40.8203 129.191 40.1953C129.074 39.5703 128.957 38.9258 128.84 38.2617C128.723 37.5586 128.625 36.875 128.547 36.2109C128.508 35.5469 128.547 34.9414 128.664 34.3945C128.781 33.8086 129.016 33.2812 129.367 32.8125C129.758 32.3438 129.895 31.8359 129.777 31.2891C129.973 31.25 130.09 31.1523 130.129 30.9961C130.168 30.8008 130.324 30.7227 130.598 30.7617C130.832 30.0586 131.086 29.3945 131.359 28.7695C131.633 28.1445 131.906 27.5391 132.18 26.9531C132.492 26.3672 132.785 25.7812 133.059 25.1953C133.371 24.5703 133.664 23.8867 133.938 23.1445C133.391 22.6367 132.98 22.0898 132.707 21.5039C132.473 20.8789 132.297 20.2734 132.18 19.6875C132.062 19.0625 131.965 18.4375 131.887 17.8125C131.809 17.1484 131.672 16.4844 131.477 15.8203C131.867 15.2344 132.336 14.7656 132.883 14.4141C133.469 14.0234 134.094 13.7109 134.758 13.4766C135.422 13.2422 136.145 13.0469 136.926 12.8906C137.707 12.7344 138.527 12.5586 139.387 12.3633C140.949 11.8555 142.336 11.4648 143.547 11.1914C144.797 10.918 146.008 10.7031 147.18 10.5469C148.391 10.3516 149.641 10.1758 150.93 10.0195C152.219 9.86328 153.684 9.62891 155.324 9.31641C155.676 9.66797 156.008 9.84375 156.32 9.84375C156.477 9.49219 156.652 9.39453 156.848 9.55078C157.082 9.66797 157.18 9.55078 157.141 9.19922C157.531 9.86328 158.02 10.4297 158.605 10.8984C159.23 11.3281 159.914 11.6992 160.656 12.0117ZM33.1469 84.0781C32.9125 84.7422 32.5609 85.4258 32.0922 86.1289C31.6625 86.793 31.1352 87.3984 30.5102 87.9453C29.9242 88.4531 29.2602 88.8828 28.518 89.2344C27.7758 89.5859 26.9945 89.7812 26.1742 89.8203C25.6664 89.7031 25.3148 89.5664 25.1195 89.4102C24.9633 89.293 24.7875 89.1758 24.5922 89.0586C24.475 88.9805 24.3578 88.9219 24.2406 88.8828C24.1625 88.8047 24.0844 88.7461 24.0062 88.707L23.3031 88.4141L23.5375 87.6523C23.6156 87.3398 23.5961 87.1055 23.4789 86.9492C23.3617 86.7539 23.1273 86.5 22.7758 86.1875C22.6586 86.0703 22.5414 85.9531 22.4242 85.8359C22.307 85.7188 22.2094 85.6016 22.1312 85.4844L21.1352 84.3711L22.7172 83.9609C23.6937 83.6875 24.3383 83.3359 24.6508 82.9062C25.0023 82.4766 25.1391 81.7539 25.0609 80.7383C24.2797 80.582 23.6156 80.5625 23.0687 80.6797C22.5609 80.7969 22.0336 80.9336 21.4867 81.0898C20.7836 81.2852 20.0609 81.4609 19.3187 81.6172C18.6156 81.7344 17.8344 81.793 16.975 81.793C16.6625 81.793 16.3695 81.793 16.0961 81.793C15.8227 81.7539 15.5297 81.7148 15.2172 81.6758L14.6312 81.5586C14.5531 81.1289 14.475 80.8945 14.3969 80.8555C14.3187 80.7773 14.2406 80.6992 14.1625 80.6211C13.9672 80.4258 13.7523 80.1719 13.518 79.8594C13.3227 79.5078 13.2836 79.0781 13.4008 78.5703C13.2055 78.2188 13.0883 77.8672 13.0492 77.5156C12.8148 77.9844 12.6391 78.4727 12.5219 78.9805L12.2875 79.5664L11.7016 79.6836C11.6234 79.7227 11.5648 79.8203 11.5258 79.9766C11.4867 80.0938 11.4672 80.1914 11.4672 80.2695L11.1742 81.2656C11.0961 81.3438 11.018 81.4219 10.9398 81.5C10.8617 81.5391 10.7836 81.5977 10.7055 81.6758C10.6273 82.0273 10.5297 82.3789 10.4125 82.7305C10.2953 83.082 10.1781 83.4141 10.0609 83.7266C9.86562 84.2344 9.68984 84.7422 9.53359 85.25C9.4164 85.7188 9.37734 86.1875 9.4164 86.6562L9.18203 87.3008C8.98672 87.5352 8.77187 87.7305 8.5375 87.8867C8.30312 88.0039 8.06875 88.1211 7.83437 88.2383C7.75625 88.3164 7.63906 88.3945 7.48281 88.4727C7.36562 88.5117 7.26797 88.5508 7.18984 88.5898L7.01406 89.2344L6.31094 89.3516C5.88125 89.4297 5.56875 89.4883 5.37344 89.5273C5.21719 89.5664 5.02187 89.5859 4.7875 89.5859L4.20156 89.5273C3.77187 89.1758 3.43984 88.9023 3.20547 88.707C2.97109 88.4727 2.69765 88.2578 2.38515 88.0625C2.03359 87.5938 1.83828 87.2422 1.79922 87.0078C1.76015 86.7734 1.72109 86.5586 1.68203 86.3633C1.6039 86.1289 1.56484 85.9336 1.56484 85.7773C1.52578 85.6211 1.46719 85.5039 1.38906 85.4258L0.627342 84.7227L1.27187 84.1953L1.33047 83.1992C2.11172 81.207 2.93203 79.293 3.7914 77.457C4.68984 75.6211 5.60781 73.7461 6.54531 71.832C6.85781 71.207 7.15078 70.582 7.42422 69.957C7.73672 69.332 8.04922 68.707 8.36172 68.082C8.32265 67.9648 8.30312 67.8281 8.30312 67.6719C8.30312 67.5156 8.34219 67.3398 8.42031 67.1445C8.85 66.4805 9.20156 65.8945 9.475 65.3867C9.74844 64.8398 10.0219 64.293 10.2953 63.7461C10.6078 63.082 10.9203 62.4375 11.2328 61.8125C11.5844 61.1875 12.0141 60.543 12.5219 59.8789L13.4594 59.4688C13.5766 59.4297 13.7133 59.3906 13.8695 59.3516C14.0258 59.2734 14.2016 59.2344 14.3969 59.2344L15.2758 59.3516C16.3695 58.8438 17.3266 58.1406 18.1469 57.2422C18.9672 56.3047 19.807 55.1914 20.6664 53.9023L21.2523 53.082L22.0141 53.5508C22.2094 53.668 22.4828 53.7852 22.8344 53.9023C23.1859 53.9805 23.557 54.0781 23.9477 54.1953C24.6508 54.3516 25.3148 54.5273 25.9398 54.7227C26.5648 54.918 27.0727 55.2109 27.4633 55.6016C27.6977 56.2266 27.8344 56.6953 27.8734 57.0078C27.9125 57.3203 27.9711 57.6328 28.0492 57.9453C28.1664 58.6094 28.2641 59.2734 28.3422 59.9375C28.4594 60.6016 28.5375 61.3438 28.5766 62.1641C28.7719 62.8281 28.9281 63.4922 29.0453 64.1562C29.2016 64.7812 29.3383 65.4258 29.4555 66.0898C29.6508 67.0273 29.8461 67.9453 30.0414 68.8438C30.2367 69.7031 30.4906 70.5234 30.8031 71.3047C31.1156 71.3047 31.3109 71.3242 31.3891 71.3633C31.5844 71.2852 31.7797 71.2266 31.975 71.1875C32.2094 71.1484 32.4633 71.1094 32.7367 71.0703L33.3812 71.0117L33.6156 71.5977C33.6547 71.793 33.85 71.9883 34.2016 72.1836C34.7094 72.2227 35.0805 72.3398 35.3148 72.5352C35.5492 72.6914 35.7641 72.8672 35.9594 73.0625C36.1156 73.2188 36.2719 73.3359 36.4281 73.4141L37.307 73.7656L36.8383 74.6445C36.4477 75.3477 35.8812 76.0312 35.1391 76.6953C34.4359 77.3203 33.6352 77.8477 32.7367 78.2773C32.7758 78.5117 32.7953 78.7461 32.7953 78.9805C32.8344 79.1758 32.893 79.3906 32.9711 79.625C33.0883 80.2891 33.1859 80.9727 33.2641 81.6758C33.3422 82.3789 33.3422 83.1016 33.2641 83.8438L33.1469 84.0781ZM16.2133 73.9414C17.3852 73.8633 18.4398 73.7852 19.3773 73.707C20.3539 73.5898 21.4281 73.4141 22.6 73.1797C22.3266 72.0078 22.0336 70.7969 21.7211 69.5469C21.4086 68.2578 21.0766 66.9883 20.725 65.7383L20.3734 66.3242C19.5922 67.1445 18.8305 68.0625 18.0883 69.0781C17.3852 70.0938 16.7797 71.0508 16.2719 71.9492C16.0375 72.3008 15.8031 72.6523 15.5687 73.0039C15.3344 73.3555 15.1195 73.707 14.9242 74.0586C15.1586 74.0195 15.3734 74 15.5687 74C15.8031 74 16.018 73.9805 16.2133 73.9414ZM62.9734 61.8125C62.8953 62.8281 62.7781 63.7266 62.6219 64.5078C62.4656 65.2891 62.2508 66.1094 61.9773 66.9688C61.3133 70.1328 60.532 73.1406 59.6336 75.9922C58.7742 78.8438 57.7781 81.4023 56.6453 83.668C55.6297 84.8008 54.6336 85.7969 53.657 86.6562C52.7195 87.5156 51.6648 88.1211 50.493 88.4727C49.907 88.5508 49.3797 88.6484 48.9109 88.7656C48.4812 88.8438 48.0516 88.9414 47.6219 89.0586C47.4266 89.0977 47.2117 89.1367 46.9773 89.1758C46.782 89.2148 46.5867 89.2734 46.3914 89.3516C45.8055 89.2344 45.2391 89.1367 44.6922 89.0586C44.1844 89.0195 43.7156 89 43.2859 89L42.5242 88.7656C42.1336 88.6484 41.8211 88.5508 41.5867 88.4727C41.3914 88.3945 41.1961 88.3359 41.0008 88.2969C40.8445 88.2188 40.6492 88.1602 40.4148 88.1211C40.2195 88.082 39.8875 88.043 39.4187 88.0039C38.8328 88.2383 38.2859 88.3555 37.7781 88.3555C37.075 88.3555 36.3133 88.0625 35.493 87.4766C34.6727 86.8906 33.9891 85.6406 33.4422 83.7266C33.5203 82.9844 33.6375 82.3398 33.7937 81.793C33.9109 81.207 34.0477 80.7578 34.2039 80.4453C35.1414 79.8984 35.9227 79.625 36.5477 79.625C37.2898 79.625 37.993 79.7422 38.657 79.9766C39.3602 80.2109 40.0437 80.4648 40.7078 80.7383C41.0203 80.8555 41.2352 80.9531 41.3523 81.0312C41.4695 81.1094 41.5672 81.168 41.6453 81.207C41.7234 81.2461 41.8016 81.2656 41.8797 81.2656C41.9969 81.2656 42.2117 81.2656 42.5242 81.2656C42.7195 81.2656 42.8758 81.2656 42.993 81.2656C43.1492 81.2266 43.3055 81.1875 43.4617 81.1484L44.0477 81.207C44.282 81.3242 44.5555 81.3828 44.868 81.3828C45.2586 81.3828 45.7469 81.2852 46.3328 81.0898C46.6062 80.9727 46.8211 80.8945 46.9773 80.8555C47.1727 80.8164 47.368 80.7773 47.5633 80.7383L48.032 80.2695C48.3836 80.1523 48.6375 80.0156 48.7937 79.8594C48.9891 79.7031 49.1453 79.5273 49.2625 79.332C49.4187 79.1367 49.5555 78.9219 49.6727 78.6875C49.7898 78.4531 49.9461 78.1992 50.1414 77.9258C50.2977 77.7305 50.4344 77.5352 50.5516 77.3398C50.7078 77.1445 50.8641 76.9492 51.0203 76.7539V76.168C51.5281 75.0352 51.9773 73.8633 52.368 72.6523C52.7586 71.4023 53.1102 70.1523 53.4227 68.9023C53.7352 67.6523 53.9891 66.4414 54.1844 65.2695C54.4187 64.0977 54.6141 63.043 54.7703 62.1055H54.1844C53.2078 62.1055 52.407 62.125 51.782 62.1641C51.157 62.1641 50.5906 62.2031 50.0828 62.2812C49.575 62.3203 49.0281 62.3984 48.4422 62.5156C47.8953 62.6328 47.1922 62.7695 46.3328 62.9258L45.4539 63.1016C44.868 63.4141 44.282 63.6875 43.6961 63.9219C43.1102 64.1562 42.5242 64.2734 41.9383 64.2734C40.9227 64.2734 40.0633 63.8828 39.3602 63.1016C38.618 62.5938 38.1883 61.9297 38.0711 61.1094C37.8758 60.875 37.8172 60.6016 37.8953 60.2891C37.7391 59.8203 37.6609 59.4102 37.6609 59.0586C37.6609 58.668 37.6609 58.3164 37.6609 58.0039V57.1836H38.4227C38.618 56.9883 38.7547 56.8516 38.8328 56.7734C38.9109 56.6562 38.9695 56.5195 39.0086 56.3633L39.6531 55.8359C40.3172 55.7578 41.0008 55.6602 41.7039 55.543C42.4461 55.3867 43.2078 55.2305 43.9891 55.0742C44.7312 54.918 45.3562 54.8008 45.8641 54.7227C46.4109 54.6445 46.9187 54.5859 47.3875 54.5469C47.8953 54.5078 48.4031 54.4883 48.9109 54.4883C49.4578 54.4492 50.0828 54.4297 50.7859 54.4297H52.1336C52.2508 54.2734 52.368 54.1953 52.4852 54.1953C52.6414 54.1562 52.7586 54.1367 52.8367 54.1367C53.032 54.1367 53.1883 54.1562 53.3055 54.1953C53.4227 54.2344 53.5203 54.2734 53.5984 54.3125C54.6922 54.1172 55.7078 54 56.6453 53.9609C57.5828 53.8828 58.4227 53.8438 59.1648 53.8438C59.5555 53.8438 59.907 53.8438 60.2195 53.8438C60.5711 53.8438 60.9031 53.8633 61.2156 53.9023H63.1492H64.4383C64.6336 53.8633 64.9461 53.8438 65.3758 53.8438C66.0008 53.8438 66.3914 53.8633 66.5477 53.9023C66.743 53.9023 67.075 53.9414 67.5437 54.0195C68.0906 54.0977 68.5789 54.1758 69.0086 54.2539C69.4773 54.293 69.9461 54.3125 70.4148 54.3125H71.2937L71.4695 54.8984L71.9383 55.4844C72.0164 55.6797 72.1336 55.8555 72.2898 56.0117C72.4852 56.168 72.6805 56.3438 72.8758 56.5391C73.2664 56.9297 73.6375 57.3789 73.9891 57.8867C74.3797 58.3945 74.5164 59.1562 74.3992 60.1719L73.9891 60.8164C73.7937 60.8945 73.5594 61.0703 73.2859 61.3438L72.7586 61.8125C72.3289 61.8516 71.9578 61.8906 71.6453 61.9297C71.3328 61.9297 71.0203 61.9297 70.7078 61.9297C70.1219 61.9297 69.5164 61.9102 68.8914 61.8711C68.3055 61.832 67.6805 61.793 67.0164 61.7539C66.6648 61.7539 66.3914 61.7539 66.1961 61.7539C66.0008 61.7539 65.8055 61.7539 65.6102 61.7539C65.4539 61.7539 65.2781 61.7539 65.0828 61.7539C64.8875 61.7539 64.6336 61.7539 64.3211 61.7539C64.0086 61.7539 63.7742 61.7539 63.618 61.7539C63.4617 61.7539 63.2469 61.7734 62.9734 61.8125ZM98.8352 55.6602C98.9133 56.5195 99.05 57.2617 99.2453 57.8867C99.4406 58.5117 99.6555 59.1172 99.8898 59.7031C100.085 60.25 100.261 60.7969 100.417 61.3438C100.612 61.8516 100.749 62.4766 100.827 63.2188C100.515 64.2344 100.28 65.1719 100.124 66.0312C100.007 66.8906 99.8703 67.7891 99.7141 68.7266C99.0891 70.0938 98.4836 71.3047 97.8977 72.3594C97.3117 73.4141 96.843 74.332 96.4914 75.1133C96.2961 75.3086 96.1203 75.543 95.9641 75.8164C95.8469 76.0508 95.7102 76.3047 95.5539 76.5781C95.4758 76.6953 95.3781 76.8711 95.2609 77.1055C95.1437 77.3398 95.0461 77.4961 94.968 77.5742L93.7961 77.1641L93.5617 78.6289L92.7414 78.8633L92.1555 79.5664C91.4133 80.8555 90.632 81.9492 89.8117 82.8477C88.9914 83.707 88.0539 84.4883 86.9992 85.1914C85.9836 85.8555 84.8117 86.4805 83.4836 87.0664C82.1945 87.6523 80.7297 88.2969 79.0891 89C78.425 88.9219 77.8391 88.8828 77.3312 88.8828C76.8625 88.8438 76.4133 88.8047 75.9836 88.7656C75.2414 88.7656 74.3234 88.707 73.2297 88.5898C73.1125 88.2773 72.9367 88.0625 72.7023 87.9453C72.468 87.8281 72.2531 87.7695 72.0578 87.7695C71.3937 87.457 70.8859 87.0078 70.5344 86.4219C70.2219 85.7969 69.9094 85.1328 69.5969 84.4297C69.4016 84 69.2062 83.6094 69.0109 83.2578C68.8156 82.8672 68.6008 82.4766 68.3664 82.0859L69.3625 81.793L68.0734 80.3867C67.9953 80.2695 67.8977 80.1719 67.7805 80.0938C67.6633 79.9766 67.5656 79.8594 67.4875 79.7422L67.4289 78.8047C67.3117 76.1094 67.2531 73.6484 67.2531 71.4219C67.2922 69.1562 67.6047 67.1445 68.1906 65.3867V64.7422C68.3078 63.8828 68.425 63.1797 68.5422 62.6328C68.6594 62.0469 68.757 61.5 68.8352 60.9922C68.9523 60.1328 69.1281 59.332 69.3625 58.5898C69.9094 58.4727 70.3195 58.2578 70.593 57.9453C70.8664 57.5938 71.1008 57.2812 71.2961 57.0078C71.843 56.9688 72.2141 57.0469 72.4094 57.2422C72.6047 57.4375 72.8 57.75 72.9953 58.1797C73.1906 58.5312 73.425 58.9219 73.6984 59.3516C74.0109 59.7812 74.4602 60.1133 75.0461 60.3477C75.1242 60.6602 75.2219 60.9922 75.3391 61.3438C75.4953 61.6562 75.6516 62.0078 75.8078 62.3984C76.1203 63.0625 76.3937 63.7656 76.6281 64.5078C76.9016 65.2109 77.0578 65.8945 77.0969 66.5586C76.7062 67.3008 76.3937 68.1602 76.1594 69.1367C75.9641 70.1133 75.8273 71.1094 75.7492 72.125C75.7102 73.1016 75.7297 74.0586 75.8078 74.9961C75.925 75.8945 76.1008 76.6562 76.3352 77.2812L76.6867 78.043L77.6828 77.9258C78.8547 77.6133 79.9094 77.2812 80.8469 76.9297C81.8234 76.5391 82.7219 76.0898 83.5422 75.582C84.3625 75.0742 85.1437 74.4883 85.8859 73.8242C86.6281 73.1211 87.4094 72.3203 88.2297 71.4219C89.05 70.5234 89.7531 69.5078 90.3391 68.375C90.9641 67.2031 91.4719 65.9922 91.8625 64.7422C92.2922 63.4922 92.6047 62.2617 92.8 61.0508C93.0344 59.8008 93.1906 58.6289 93.2687 57.5352C93.9328 57.3008 94.2648 56.832 94.2648 56.1289L94.1477 55.4844C93.9914 55.25 93.9914 54.9766 94.1477 54.6641C94.382 53.9219 94.9289 53.3555 95.7883 52.9648C96.4133 53.3555 96.9602 53.7852 97.4289 54.2539C97.9367 54.7227 98.4055 55.1914 98.8352 55.6602ZM125.849 73.1797C125.81 73.375 125.771 73.5508 125.732 73.707C125.693 73.8242 125.654 73.9414 125.615 74.0586C125.576 74.1758 125.556 74.332 125.556 74.5273C125.556 74.6836 125.556 74.8984 125.556 75.1719C124.384 77.2422 122.9 78.9805 121.103 80.3867C119.345 81.793 117.392 83.043 115.244 84.1367C113.134 85.1914 110.927 86.168 108.623 87.0664C106.318 87.9258 104.072 88.8633 101.884 89.8789C100.947 89.6445 100.224 89.2539 99.7164 88.707C99.2477 88.1602 98.8766 87.5352 98.6031 86.832C98.3688 86.0898 98.193 85.2891 98.0758 84.4297C97.9977 83.5312 97.9195 82.6133 97.8414 81.6758C97.9586 81.2461 98.1148 80.8945 98.3102 80.6211C98.5445 80.3086 98.6617 79.8789 98.6617 79.332C98.9742 78.3164 99.2867 77.3203 99.5992 76.3438C99.9117 75.3672 100.107 74.3711 100.185 73.3555C100.302 73.043 100.517 72.8281 100.83 72.7109C101.025 70.8359 101.025 68.9414 100.83 67.0273C100.673 65.0742 100.361 63.2578 99.8922 61.5781C99.9313 61.1875 99.9703 60.9141 100.009 60.7578C100.088 60.5625 100.088 60.4258 100.009 60.3477C99.9703 60.0352 100.068 59.8789 100.302 59.8789C100.576 59.8789 100.849 59.8789 101.123 59.8789C101.123 59.293 101.005 58.707 100.771 58.1211C100.576 57.5352 100.38 56.8711 100.185 56.1289C100.459 55.543 100.634 54.9766 100.713 54.4297C100.791 53.8438 100.966 53.3359 101.24 52.9062C103.349 53.5703 105.361 54.3711 107.275 55.3086C109.228 56.2461 111.142 56.9297 113.017 57.3594C114.423 58.375 115.869 59.3906 117.353 60.4062C118.838 61.3828 120.185 62.4766 121.396 63.6875C122.607 64.8594 123.623 66.207 124.443 67.7305C125.263 69.2539 125.732 71.0703 125.849 73.1797ZM111.963 76.4023C112.783 76.0898 113.584 75.7578 114.365 75.4062C115.185 75.0547 115.927 74.6641 116.591 74.2344C117.295 73.7656 117.92 73.2383 118.466 72.6523C119.013 72.0664 119.463 71.3633 119.814 70.543C119.58 70.0742 119.267 69.6641 118.877 69.3125C118.486 68.9219 118.095 68.5703 117.705 68.2578C117.314 67.9062 116.923 67.5547 116.533 67.2031C116.181 66.8516 115.888 66.4219 115.654 65.9141C115.146 65.8359 114.697 65.6992 114.306 65.5039C113.916 65.2695 113.525 65.0547 113.134 64.8594C112.783 64.625 112.392 64.4102 111.963 64.2148C111.572 64.0195 111.103 63.9023 110.556 63.8633C109.697 63.4336 108.916 63.1211 108.213 62.9258C107.548 62.7305 107.041 62.4766 106.689 62.1641C106.416 62.1641 106.201 62.2227 106.045 62.3398C106.435 63.8242 106.728 65.2305 106.923 66.5586C107.119 67.8477 107.216 69.1562 107.216 70.4844C107.255 71.7734 107.197 73.1016 107.041 74.4688C106.884 75.8359 106.67 77.3203 106.396 78.9219C106.787 78.8828 107.138 78.8047 107.451 78.6875C107.802 78.5312 108.134 78.375 108.447 78.2188C108.798 78.0625 109.15 77.9258 109.502 77.8086C109.892 77.6523 110.341 77.5547 110.849 77.5156C110.966 77.2812 111.123 77.0859 111.318 76.9297C111.552 76.7734 111.767 76.5977 111.963 76.4023ZM155.383 84.0781C155.148 84.7422 154.797 85.4258 154.328 86.1289C153.898 86.793 153.371 87.3984 152.746 87.9453C152.16 88.4531 151.496 88.8828 150.754 89.2344C150.012 89.5859 149.23 89.7812 148.41 89.8203C147.902 89.7031 147.551 89.5664 147.355 89.4102C147.199 89.293 147.023 89.1758 146.828 89.0586C146.711 88.9805 146.594 88.9219 146.477 88.8828C146.398 88.8047 146.32 88.7461 146.242 88.707L145.539 88.4141L145.773 87.6523C145.852 87.3398 145.832 87.1055 145.715 86.9492C145.598 86.7539 145.363 86.5 145.012 86.1875C144.895 86.0703 144.777 85.9531 144.66 85.8359C144.543 85.7188 144.445 85.6016 144.367 85.4844L143.371 84.3711L144.953 83.9609C145.93 83.6875 146.574 83.3359 146.887 82.9062C147.238 82.4766 147.375 81.7539 147.297 80.7383C146.516 80.582 145.852 80.5625 145.305 80.6797C144.797 80.7969 144.27 80.9336 143.723 81.0898C143.02 81.2852 142.297 81.4609 141.555 81.6172C140.852 81.7344 140.07 81.793 139.211 81.793C138.898 81.793 138.605 81.793 138.332 81.793C138.059 81.7539 137.766 81.7148 137.453 81.6758L136.867 81.5586C136.789 81.1289 136.711 80.8945 136.633 80.8555C136.555 80.7773 136.477 80.6992 136.398 80.6211C136.203 80.4258 135.988 80.1719 135.754 79.8594C135.559 79.5078 135.52 79.0781 135.637 78.5703C135.441 78.2188 135.324 77.8672 135.285 77.5156C135.051 77.9844 134.875 78.4727 134.758 78.9805L134.523 79.5664L133.938 79.6836C133.859 79.7227 133.801 79.8203 133.762 79.9766C133.723 80.0938 133.703 80.1914 133.703 80.2695L133.41 81.2656C133.332 81.3438 133.254 81.4219 133.176 81.5C133.098 81.5391 133.02 81.5977 132.941 81.6758C132.863 82.0273 132.766 82.3789 132.648 82.7305C132.531 83.082 132.414 83.4141 132.297 83.7266C132.102 84.2344 131.926 84.7422 131.77 85.25C131.652 85.7188 131.613 86.1875 131.652 86.6562L131.418 87.3008C131.223 87.5352 131.008 87.7305 130.773 87.8867C130.539 88.0039 130.305 88.1211 130.07 88.2383C129.992 88.3164 129.875 88.3945 129.719 88.4727C129.602 88.5117 129.504 88.5508 129.426 88.5898L129.25 89.2344L128.547 89.3516C128.117 89.4297 127.805 89.4883 127.609 89.5273C127.453 89.5664 127.258 89.5859 127.023 89.5859L126.438 89.5273C126.008 89.1758 125.676 88.9023 125.441 88.707C125.207 88.4727 124.934 88.2578 124.621 88.0625C124.27 87.5938 124.074 87.2422 124.035 87.0078C123.996 86.7734 123.957 86.5586 123.918 86.3633C123.84 86.1289 123.801 85.9336 123.801 85.7773C123.762 85.6211 123.703 85.5039 123.625 85.4258L122.863 84.7227L123.508 84.1953L123.566 83.1992C124.348 81.207 125.168 79.293 126.027 77.457C126.926 75.6211 127.844 73.7461 128.781 71.832C129.094 71.207 129.387 70.582 129.66 69.957C129.973 69.332 130.285 68.707 130.598 68.082C130.559 67.9648 130.539 67.8281 130.539 67.6719C130.539 67.5156 130.578 67.3398 130.656 67.1445C131.086 66.4805 131.438 65.8945 131.711 65.3867C131.984 64.8398 132.258 64.293 132.531 63.7461C132.844 63.082 133.156 62.4375 133.469 61.8125C133.82 61.1875 134.25 60.543 134.758 59.8789L135.695 59.4688C135.812 59.4297 135.949 59.3906 136.105 59.3516C136.262 59.2734 136.438 59.2344 136.633 59.2344L137.512 59.3516C138.605 58.8438 139.562 58.1406 140.383 57.2422C141.203 56.3047 142.043 55.1914 142.902 53.9023L143.488 53.082L144.25 53.5508C144.445 53.668 144.719 53.7852 145.07 53.9023C145.422 53.9805 145.793 54.0781 146.184 54.1953C146.887 54.3516 147.551 54.5273 148.176 54.7227C148.801 54.918 149.309 55.2109 149.699 55.6016C149.934 56.2266 150.07 56.6953 150.109 57.0078C150.148 57.3203 150.207 57.6328 150.285 57.9453C150.402 58.6094 150.5 59.2734 150.578 59.9375C150.695 60.6016 150.773 61.3438 150.812 62.1641C151.008 62.8281 151.164 63.4922 151.281 64.1562C151.438 64.7812 151.574 65.4258 151.691 66.0898C151.887 67.0273 152.082 67.9453 152.277 68.8438C152.473 69.7031 152.727 70.5234 153.039 71.3047C153.352 71.3047 153.547 71.3242 153.625 71.3633C153.82 71.2852 154.016 71.2266 154.211 71.1875C154.445 71.1484 154.699 71.1094 154.973 71.0703L155.617 71.0117L155.852 71.5977C155.891 71.793 156.086 71.9883 156.438 72.1836C156.945 72.2227 157.316 72.3398 157.551 72.5352C157.785 72.6914 158 72.8672 158.195 73.0625C158.352 73.2188 158.508 73.3359 158.664 73.4141L159.543 73.7656L159.074 74.6445C158.684 75.3477 158.117 76.0312 157.375 76.6953C156.672 77.3203 155.871 77.8477 154.973 78.2773C155.012 78.5117 155.031 78.7461 155.031 78.9805C155.07 79.1758 155.129 79.3906 155.207 79.625C155.324 80.2891 155.422 80.9727 155.5 81.6758C155.578 82.3789 155.578 83.1016 155.5 83.8438L155.383 84.0781ZM138.449 73.9414C139.621 73.8633 140.676 73.7852 141.613 73.707C142.59 73.5898 143.664 73.4141 144.836 73.1797C144.562 72.0078 144.27 70.7969 143.957 69.5469C143.645 68.2578 143.312 66.9883 142.961 65.7383L142.609 66.3242C141.828 67.1445 141.066 68.0625 140.324 69.0781C139.621 70.0938 139.016 71.0508 138.508 71.9492C138.273 72.3008 138.039 72.6523 137.805 73.0039C137.57 73.3555 137.355 73.707 137.16 74.0586C137.395 74.0195 137.609 74 137.805 74C138.039 74 138.254 73.9805 138.449 73.9414ZM175.134 83.4336L175.895 82.8477L175.954 81.6172C176.93 79.2344 177.927 76.9492 178.942 74.7617C179.997 72.5742 181.091 70.3281 182.223 68.0234C182.575 67.2812 182.927 66.5391 183.278 65.7969C183.669 65.0547 184.04 64.293 184.391 63.5117C184.352 63.3555 184.333 63.1992 184.333 63.043C184.333 62.8477 184.372 62.6328 184.45 62.3984C184.997 61.6172 185.427 60.9141 185.739 60.2891C186.091 59.6641 186.423 59.0195 186.735 58.3555C187.087 57.5742 187.458 56.793 187.848 56.0117C188.278 55.2305 188.805 54.4688 189.43 53.7266L189.841 53.1406L190.485 53.1992C190.641 53.1211 190.798 53.0625 190.954 53.0234C191.149 52.9453 191.384 52.9062 191.657 52.9062L192.712 53.082C194.001 52.4961 195.134 51.6562 196.11 50.5625C197.126 49.4297 198.141 48.082 199.157 46.5195L199.86 45.5234L200.798 46.1094C200.993 46.2266 201.305 46.3438 201.735 46.4609C202.165 46.5781 202.614 46.7148 203.083 46.8711C203.903 47.0664 204.704 47.3008 205.485 47.5742C206.266 47.8086 206.872 48.1406 207.302 48.5703L207.595 49.0977C207.673 49.5273 207.731 49.918 207.77 50.2695C207.848 50.6211 207.927 50.9727 208.005 51.3242C208.161 52.1445 208.298 52.9648 208.415 53.7852C208.532 54.5664 208.61 55.4453 208.649 56.4219C208.845 57.2031 209.02 58.0039 209.177 58.8242C209.372 59.6055 209.548 60.3867 209.704 61.168C209.899 62.3008 210.114 63.3945 210.348 64.4492C210.583 65.4648 210.895 66.4414 211.286 67.3789C211.677 67.3789 211.911 67.3984 211.989 67.4375C212.458 67.2422 213.005 67.125 213.63 67.0859L214.391 67.0273L214.626 67.7305C214.704 67.8477 214.802 67.9648 214.919 68.082C215.036 68.1992 215.173 68.3164 215.329 68.4336C215.954 68.4727 216.403 68.6094 216.677 68.8438C216.989 69.0391 217.243 69.2344 217.438 69.4297C217.516 69.5078 217.614 69.6055 217.731 69.7227C217.848 69.8008 217.946 69.8594 218.024 69.8984L219.079 70.3086L218.493 71.4219C218.063 72.2422 217.399 73.043 216.501 73.8242C215.641 74.6055 214.665 75.25 213.571 75.7578C213.649 76.0312 213.688 76.2852 213.688 76.5195C213.727 76.7539 213.786 77.0273 213.864 77.3398C214.02 78.1211 214.138 78.9414 214.216 79.8008C214.333 80.6211 214.333 81.4805 214.216 82.3789C213.825 83.3945 213.356 84.3125 212.809 85.1328C212.302 85.9141 211.677 86.6367 210.934 87.3008C210.231 87.9258 209.43 88.4531 208.532 88.8828C207.634 89.2734 206.696 89.4883 205.72 89.5273C205.173 89.4102 204.763 89.2734 204.489 89.1172C204.255 88.9609 204.04 88.8047 203.845 88.6484C203.532 88.4141 203.278 88.2578 203.083 88.1797L202.321 87.8281L202.555 86.9492C202.673 86.6367 202.653 86.3633 202.497 86.1289C202.38 85.8945 202.106 85.582 201.677 85.1914C201.52 85.0742 201.384 84.957 201.266 84.8398C201.149 84.6836 201.013 84.5273 200.856 84.3711L199.684 83.0234L201.618 82.4961C202.79 82.1836 203.571 81.793 203.962 81.3242C204.352 80.8164 204.509 79.9375 204.43 78.6875C203.454 78.4922 202.653 78.4727 202.028 78.6289C201.403 78.7461 200.778 78.8828 200.153 79.0391C199.255 79.2734 198.376 79.4883 197.516 79.6836C196.657 79.8398 195.72 79.918 194.704 79.918C194.04 79.918 193.337 79.8594 192.595 79.7422L191.95 79.6836L191.774 79.0391C191.774 78.9609 191.716 78.8828 191.598 78.8047C191.52 78.6875 191.442 78.5898 191.364 78.5117C191.169 78.2773 190.934 77.9648 190.661 77.5742C190.388 77.1836 190.329 76.6953 190.485 76.1094C190.212 75.6797 190.055 75.2305 190.016 74.7617C189.86 75.0742 189.723 75.3867 189.606 75.6992C189.528 75.9727 189.45 76.2461 189.372 76.5195L189.138 77.2812L188.376 77.3984C188.298 77.4766 188.22 77.5938 188.141 77.75C188.102 77.9062 188.102 78.0234 188.141 78.1016L188.376 78.7461L187.79 79.2734C187.712 79.3906 187.614 79.4883 187.497 79.5664C187.38 79.6445 187.282 79.7227 187.204 79.8008C187.126 80.2305 187.009 80.6406 186.852 81.0312C186.735 81.4219 186.598 81.8125 186.442 82.2031C186.247 82.8281 186.052 83.4336 185.856 84.0195C185.7 84.6055 185.622 85.1914 185.622 85.7773L185.388 86.5391C185.192 86.8516 184.938 87.0859 184.626 87.2422C184.352 87.3984 184.079 87.5352 183.805 87.6523C183.415 87.8086 183.141 87.9648 182.985 88.1211L182.809 88.8828L181.93 89C181.423 89.1172 181.052 89.1953 180.817 89.2344C180.622 89.2734 180.388 89.293 180.114 89.293L179.352 89.2344C178.884 88.7656 178.493 88.4141 178.18 88.1797C177.907 87.9062 177.575 87.6719 177.184 87.4766L176.833 87.0078C176.677 86.6953 176.579 86.4219 176.54 86.1875C176.501 85.9141 176.442 85.6406 176.364 85.3672C176.286 84.8594 176.169 84.5078 176.013 84.3125L175.134 83.4336ZM193.825 68.1992C193.278 68.9805 192.751 69.8008 192.243 70.6602C192.516 70.6211 192.77 70.6016 193.005 70.6016C193.278 70.6016 193.552 70.582 193.825 70.543C195.192 70.4648 196.462 70.3672 197.634 70.25C198.805 70.1328 200.075 69.9375 201.442 69.6641C201.13 68.2188 200.778 66.7539 200.388 65.2695C200.036 63.7461 199.645 62.2227 199.216 60.6992L198.923 61.2852C197.946 62.3398 197.009 63.4727 196.11 64.6836C195.212 65.8945 194.47 67.0469 193.884 68.1406L193.825 68.1992ZM228.808 84.8984C229.003 86.0703 228.925 86.9883 228.573 87.6523C228.261 88.3164 227.792 88.8047 227.167 89.1172C226.581 89.4688 225.898 89.6641 225.116 89.7031C224.335 89.7422 223.593 89.7031 222.89 89.5859C222.499 89.0391 222.148 88.3555 221.835 87.5352C221.523 86.7148 221.23 85.875 220.956 85.0156C220.683 84.1172 220.429 83.2383 220.195 82.3789C219.999 81.5195 219.823 80.7578 219.667 80.0938C219.862 79.625 219.98 79.0977 220.019 78.5117C220.097 77.8867 220.136 77.2617 220.136 76.6367C220.175 76.0117 220.195 75.3867 220.195 74.7617C220.234 74.0977 220.292 73.4727 220.37 72.8867C220.644 71.2461 221.034 69.6836 221.542 68.1992C222.089 66.7148 222.519 65.1719 222.831 63.5703C222.909 63.2188 222.87 62.8867 222.714 62.5742C222.597 62.2617 222.577 61.9688 222.655 61.6953C222.695 61.5391 222.812 61.4414 223.007 61.4023C223.202 61.3242 223.32 61.1875 223.359 60.9922C223.476 60.5625 223.495 60.2109 223.417 59.9375C223.378 59.6641 223.456 59.332 223.652 58.9414C223.847 58.6289 224.081 58.1797 224.355 57.5938C224.667 56.9688 224.784 56.3242 224.706 55.6602C225.058 55.4258 225.39 55.1523 225.702 54.8398C226.015 54.5273 226.327 54.2539 226.64 54.0195C226.991 53.7461 227.362 53.5117 227.753 53.3164C228.183 53.1211 228.691 53.0234 229.277 53.0234C229.589 53.4141 229.784 53.8438 229.862 54.3125C229.98 54.7812 230.077 55.25 230.155 55.7188C230.273 56.1875 230.429 56.6367 230.624 57.0664C230.82 57.457 231.152 57.7695 231.62 58.0039C231.62 58.3164 231.62 58.707 231.62 59.1758C231.62 59.6445 231.64 60.1133 231.679 60.582C231.718 61.0117 231.796 61.4219 231.913 61.8125C232.07 62.1641 232.304 62.3984 232.616 62.5156C231.913 64.3906 231.249 66.2461 230.624 68.082C230.038 69.918 229.55 71.7734 229.159 73.6484C228.769 75.4844 228.515 77.3398 228.398 79.2148C228.32 81.0898 228.456 82.9844 228.808 84.8984ZM249.377 48.6875C249.377 49.0391 249.318 49.4688 249.201 49.9766C249.123 50.4844 249.045 50.9922 248.966 51.5C248.888 52.0078 248.869 52.4766 248.908 52.9062C248.947 53.2969 249.123 53.5508 249.435 53.668C248.732 55.7383 248.244 57.4766 247.97 58.8828C247.736 60.2891 247.521 61.6367 247.326 62.9258C247.17 64.1758 246.955 65.5039 246.681 66.9102C246.408 68.3164 245.92 70.0352 245.216 72.0664C244.787 73.3164 244.259 74.1953 243.634 74.7031C243.009 75.1719 242.345 75.4062 241.642 75.4062C240.939 75.4062 240.216 75.2109 239.474 74.8203C238.732 74.4297 238.048 74 237.423 73.5312C237.306 72.7891 237.287 71.8906 237.365 70.8359C237.482 69.7422 237.619 68.6094 237.775 67.4375C237.931 66.2656 238.087 65.1523 238.244 64.0977C238.4 63.0039 238.517 62.0859 238.595 61.3438C238.986 60.9141 239.259 60.5625 239.416 60.2891C239.572 60.0156 239.67 59.7227 239.709 59.4102C239.787 59.0977 239.845 58.707 239.884 58.2383C239.923 57.7695 240.021 57.1055 240.177 56.2461C240.255 55.8164 240.216 55.4453 240.06 55.1328C239.943 54.7812 239.923 54.4492 240.002 54.1367C240.08 53.9805 240.197 53.8633 240.353 53.7852C240.548 53.707 240.666 53.5703 240.705 53.375C240.861 52.8672 240.9 52.4766 240.822 52.2031C240.744 51.8906 240.802 51.5195 240.998 51.0898C241.193 50.7773 241.427 50.2891 241.701 49.625C242.013 48.9219 242.13 48.1992 242.052 47.457C242.404 47.1836 242.736 46.8711 243.048 46.5195C243.361 46.168 243.673 45.8555 243.986 45.582C244.337 45.2695 244.709 45.0156 245.099 44.8203C245.529 44.625 246.037 44.5273 246.623 44.5273C246.935 44.957 247.17 45.3672 247.326 45.7578C247.482 46.1484 247.619 46.5195 247.736 46.8711C247.892 47.2227 248.087 47.5547 248.322 47.8672C248.556 48.1797 248.908 48.4531 249.377 48.6875ZM243.576 82.0273C243.654 82.3398 243.712 82.6328 243.752 82.9062C243.791 83.1797 243.83 83.4727 243.869 83.7852C243.634 84.6055 243.38 85.3477 243.107 86.0117C242.99 86.2852 242.912 86.4609 242.873 86.5391C242.834 86.6172 242.814 86.6758 242.814 86.7148C242.814 86.7539 242.834 86.8125 242.873 86.8906C242.912 86.9297 242.931 87.0859 242.931 87.3594L242.638 88.0625C242.443 88.3359 242.209 88.5508 241.935 88.707C241.701 88.8633 241.447 89 241.173 89.1172C241.056 89.1953 240.92 89.2539 240.763 89.293C240.646 89.3711 240.548 89.4492 240.47 89.5273L240.295 90.2305L239.474 90.3477C238.849 90.5039 238.283 90.582 237.775 90.582H237.13C236.662 90.1523 236.291 89.8203 236.017 89.5859C235.744 89.3516 235.431 89.1367 235.08 88.9414C234.65 88.1992 234.396 87.5547 234.318 87.0078C234.24 86.5 234.142 86.168 234.025 86.0117L233.205 85.1914L233.908 84.6641L233.205 83.5508C233.673 83.1992 234.025 82.9453 234.259 82.7891C234.494 82.6328 234.689 82.4766 234.845 82.3203C235.041 82.125 235.236 81.8906 235.431 81.6172C235.627 81.3438 235.939 80.8945 236.369 80.2695L236.896 79.5078L237.599 79.918C237.795 80.0352 238.146 80.1523 238.654 80.2695C239.201 80.3477 239.67 80.4258 240.06 80.5039C240.685 80.6992 241.291 80.8555 241.877 80.9727C242.502 81.0508 242.99 81.2461 243.341 81.5586L243.576 82.0273Z" fill="white"/>
</svg>
